<svg version="1.1" viewBox="0.0 0.0 271.4409448818898 271.0761154855643" fill="none" stroke="none" stroke-linecap="square" stroke-miterlimit="10" xmlns:xlink="http://www.w3.org/1999/xlink" xmlns="http://www.w3.org/2000/svg"><clipPath id="p.0"><path d="m0 0l271.44095 0l0 271.0761l-271.44095 0l0 -271.0761z" clip-rule="nonzero"/></clipPath><g clip-path="url(#p.0)"><path fill="#000000" fill-opacity="0.0" d="m0 0l271.44095 0l0 271.0761l-271.44095 0z" fill-rule="evenodd"/><path fill="#000000" fill-opacity="0.0" d="m138.27953 30.54732l0 225.51183" fill-rule="evenodd"/><path stroke="#d53a35" stroke-width="3.0" stroke-linejoin="round" stroke-linecap="butt" stroke-dasharray="12.0,9.0" d="m138.27953 30.54732l0 225.51183" fill-rule="evenodd"/><g filter="url(#shadowFilter-p.1)"><use xlink:href="#p.1" transform="matrix(1.0 0.0 0.0 1.0 1.9999994750656158 0.0)"/></g><defs><filter id="shadowFilter-p.1" filterUnits="userSpaceOnUse"><feGaussianBlur in="SourceAlpha" stdDeviation="0.5" result="blur"/><feComponentTransfer in="blur" color-interpolation-filters="sRGB"><feFuncR type="linear" slope="0" intercept="0.8352941"/><feFuncG type="linear" slope="0" intercept="0.6901961"/><feFuncB type="linear" slope="0" intercept="0.28235295"/><feFuncA type="linear" slope="1.0" intercept="0"/></feComponentTransfer></filter></defs><g id="p.1"><path fill="#fcfafa" d="m214.36182 55.24817c7.3940277 7.3939476 10.366989 15.812431 8.918884 25.255455c-1.4219971 9.469154 -6.679184 18.749931 -15.771591 27.842339c-15.277222 15.277214 -32.36537 22.41092 -51.264435 21.401077c-2.9901123 -17.232307 -4.030136 -31.52893 -3.1200714 -42.889862c0.9100647 -11.360931 5.677231 -21.353516 14.301453 -29.977753c7.4168396 -7.4168396 15.447662 -11.1889305 24.092453 -11.316265c8.644791 -0.12733841 16.259232 3.100998 22.843307 9.685009zm-86.45554 72.03335c2.1780472 15.483925 3.5864182 27.635551 4.2251053 36.454887c0.6387024 8.819336 -0.16355896 17.799393 -2.4067535 26.940155c-2.2185516 9.116135 -6.888405 17.234772 -14.00956 24.355927c-9.215614 9.215607 -19.359367 13.585266 -30.431236 13.108917c-11.071884 -0.47631836 -20.86657 -4.9731903 -29.384071 -13.490601c-9.77161 -9.7715 -13.447552 -20.543884 -11.027828 -32.317123c2.4704895 -11.771774 9.0774 -23.029312 19.820744 -33.77266c18.62835 -18.628342 39.699547 -25.721512 63.2136 -21.279503zm93.2232 -73.47107c-8.203964 -8.203884 -17.154816 -14.197773 -26.85254 -17.981663c-9.697723 -3.7838898 -19.165848 -4.923401 -28.404358 -3.4185333c-9.212372 1.5309944 -17.292908 5.7708282 -24.241577 12.719498c-8.944565 8.944565 -14.17765 19.481476 -15.69928 31.610725c-1.4969864 12.104614 -1.1289444 26.838074 1.1041031 44.2004c-17.019981 -6.128685 -33.160576 -8.642891 -48.421783 -7.5426025c-15.235081 1.1264114 -28.076443 6.9134445 -38.524082 17.361076c-12.246424 12.246429 -17.020823 26.322098 -14.3231945 42.227005c2.7483883 15.906418 10.941809 30.678772 24.580263 44.317078c9.954502 9.9543915 20.675003 17.052612 32.1615 21.294662c11.511131 4.2174225 22.803192 5.2835236 33.876144 3.1983032c11.099083 -2.059082 20.886818 -7.3268127 29.363213 -15.803207c7.58934 -7.58934 12.512711 -16.144394 14.770126 -25.665161c2.308197 -9.519287 3.0492706 -18.856201 2.223236 -28.010742c-0.7999115 -9.128418 -2.5890503 -21.291183 -5.367386 -36.488327c15.8593445 3.736023 29.828293 4.842453 41.90683 3.3192902c12.104675 -1.4970398 22.24736 -6.3359222 30.428055 -14.516624c9.856277 -9.85627 13.731812 -21.282547 11.626602 -34.278847c-2.079071 -12.970177 -8.814362 -25.150948 -20.205872 -36.54233z" fill-rule="evenodd"/></g></g></svg>