<svg xmlns="http://www.w3.org/2000/svg" xmlns:xlink="http://www.w3.org/1999/xlink" width="300" zoomAndPan="magnify" viewBox="0 0 224.87999 225" height="300" preserveAspectRatio="xMidYMid meet" version="1.0"><defs><g/></defs><g fill="#eefeec" fill-opacity="1"><g transform="translate(84.386119, 150.256424)"><g/></g></g><g fill="#eefeec" fill-opacity="1"><g transform="translate(110.10098, 151.241242)"><g><path d="M 14.605469 -74.648438 C 5.785156 -56.855469 12.617188 -57.726562 34.082031 -29.085938 C 44.375 -15.402344 32.949219 19.292969 19.527344 22.796875 C -3.578125 28.914062 -5.226562 -11.53125 20.320312 -16.734375 C 22.3125 -17.691406 22.878906 -19.007812 20.722656 -19.191406 C -7.660156 -12.449219 -8.78125 30.261719 20.796875 24.59375 C 46.847656 19.617188 67.71875 -19.660156 45.742188 -43.0625 C 39.808594 -49.472656 10.363281 -63.476562 19.0625 -75.40625 C 26.765625 -88.195312 60.171875 -99.6875 64.234375 -71.304688 C 62.984375 -68.160156 66.304688 -68.855469 66.183594 -71.023438 C 64.816406 -99.921875 27.277344 -93.53125 14.605469 -74.648438 Z M 14.605469 -74.648438 "/></g></g></g><g fill="#eefeec" fill-opacity="1"><g transform="translate(171.821802, 153.605003)"><g><path d="M 2.886719 -2.773438 C 4.175781 -1.386719 6.230469 -1.308594 7.621094 -2.59375 C 9.011719 -3.980469 9.105469 -6.449219 7.824219 -7.941406 C 6.542969 -9.433594 4.484375 -9.511719 3.09375 -8.125 C 1.90625 -6.726562 1.8125 -4.257812 2.886719 -2.773438 Z M 2.886719 -2.773438 "/></g></g></g><path stroke-linecap="butt" transform="matrix(2.804992, 0, 0, 2.870777, 100.635015, 113.498012)" fill="none" stroke-linejoin="miter" d="M 0.000607514 -0.000668154 L 14.699568 -0.000668154 " stroke="#e83151" stroke-width="1" stroke-opacity="1" stroke-miterlimit="4"/><g fill="#eefeec" fill-opacity="1"><g transform="translate(68.546067, 102.957309)"><g><path d="M 39.308594 -90.289062 C 5.484375 -86.742188 1.328125 -53.523438 4.136719 -43.421875 C 4.5 -42.171875 7.4375 -40.820312 6.417969 -43.847656 C 3.5 -53.746094 8.347656 -83.4375 37.980469 -87.867188 C 76.941406 -93.691406 75.535156 -48.929688 38.691406 -36.429688 C 34.164062 -36.605469 29.078125 -35.664062 23.53125 -33.40625 L 34.691406 -88.097656 C 33.625 -89.785156 20.527344 -84.105469 19.898438 -81.039062 L -0.261719 14.929688 C 0.761719 23.105469 11.570312 17.957031 12.40625 15 C 14.082031 8.882812 18.996094 -11.839844 23.023438 -30.851562 C 58.109375 -45.785156 46.835938 17.144531 28.449219 23.859375 C 14.445312 28.988281 13.664062 -4.421875 37.011719 -8.78125 C 41.164062 -9.550781 40.265625 -12.984375 36.402344 -11.691406 C 9.363281 -2.421875 13.046875 27.902344 27.308594 26.699219 C 53.148438 24.496094 79.695312 -41.867188 45.902344 -36.464844 C 70.089844 -43.882812 86.085938 -93.03125 39.308594 -90.289062 Z M 39.308594 -90.289062 "/></g></g></g><g fill="#000000" fill-opacity="1"><g transform="translate(121.291791, 175.83626)"><g/></g></g><g fill="#eefeec" fill-opacity="1"><g transform="translate(44.338132, 202.772908)"><g><path d="M 1.0625 -2.515625 C 0.882812 -2.515625 0.796875 -2.582031 0.796875 -2.71875 C 0.796875 -2.84375 0.84375 -2.960938 0.9375 -3.078125 C 1.09375 -3.265625 1.21875 -3.359375 1.3125 -3.359375 L 3.46875 -3.359375 C 3.601562 -3.359375 3.671875 -3.296875 3.671875 -3.171875 C 3.671875 -3.035156 3.625 -2.914062 3.53125 -2.8125 C 3.375 -2.613281 3.238281 -2.515625 3.125 -2.515625 Z M 1.0625 -2.515625 "/></g></g></g><g fill="#eefeec" fill-opacity="1"><g transform="translate(50.038163, 202.772908)"><g><path d="M 1.0625 -2.515625 C 0.882812 -2.515625 0.796875 -2.582031 0.796875 -2.71875 C 0.796875 -2.84375 0.84375 -2.960938 0.9375 -3.078125 C 1.09375 -3.265625 1.21875 -3.359375 1.3125 -3.359375 L 3.46875 -3.359375 C 3.601562 -3.359375 3.671875 -3.296875 3.671875 -3.171875 C 3.671875 -3.035156 3.625 -2.914062 3.53125 -2.8125 C 3.375 -2.613281 3.238281 -2.515625 3.125 -2.515625 Z M 1.0625 -2.515625 "/></g></g></g><g fill="#eefeec" fill-opacity="1"><g transform="translate(55.738193, 202.772908)"><g><path d="M 1.0625 -2.515625 C 0.882812 -2.515625 0.796875 -2.582031 0.796875 -2.71875 C 0.796875 -2.84375 0.84375 -2.960938 0.9375 -3.078125 C 1.09375 -3.265625 1.21875 -3.359375 1.3125 -3.359375 L 3.46875 -3.359375 C 3.601562 -3.359375 3.671875 -3.296875 3.671875 -3.171875 C 3.671875 -3.035156 3.625 -2.914062 3.53125 -2.8125 C 3.375 -2.613281 3.238281 -2.515625 3.125 -2.515625 Z M 1.0625 -2.515625 "/></g></g></g><g fill="#eefeec" fill-opacity="1"><g transform="translate(61.438222, 202.772908)"><g/></g></g><g fill="#eefeec" fill-opacity="1"><g transform="translate(65.754088, 202.772908)"><g><path d="M 0.453125 -1.953125 L 0.46875 -2.09375 C 0.5 -3.019531 0.734375 -3.898438 1.171875 -4.734375 C 1.566406 -5.484375 2.070312 -6.09375 2.6875 -6.5625 C 3.28125 -7.019531 3.863281 -7.25 4.4375 -7.25 C 4.875 -7.25 5.21875 -7.097656 5.46875 -6.796875 C 5.6875 -6.535156 5.796875 -6.21875 5.796875 -5.84375 C 5.796875 -5.382812 5.628906 -4.9375 5.296875 -4.5 C 5.097656 -4.238281 4.894531 -4.050781 4.6875 -3.9375 C 4.582031 -3.882812 4.484375 -3.859375 4.390625 -3.859375 C 4.304688 -3.859375 4.222656 -3.875 4.140625 -3.90625 C 4.066406 -3.945312 4.003906 -4 3.953125 -4.0625 C 3.835938 -4.175781 3.78125 -4.28125 3.78125 -4.375 C 3.78125 -4.476562 3.804688 -4.546875 3.859375 -4.578125 C 4.367188 -4.941406 4.710938 -5.320312 4.890625 -5.71875 C 4.960938 -5.863281 5 -6.007812 5 -6.15625 C 5 -6.457031 4.859375 -6.609375 4.578125 -6.609375 C 4.128906 -6.609375 3.664062 -6.363281 3.1875 -5.875 C 2.738281 -5.425781 2.363281 -4.859375 2.0625 -4.171875 C 1.75 -3.472656 1.585938 -2.832031 1.578125 -2.25 L 1.5625 -2.078125 C 1.5625 -1.378906 1.710938 -0.921875 2.015625 -0.703125 C 2.117188 -0.617188 2.242188 -0.578125 2.390625 -0.578125 C 2.535156 -0.578125 2.671875 -0.59375 2.796875 -0.625 C 2.929688 -0.664062 3.066406 -0.722656 3.203125 -0.796875 C 3.410156 -0.898438 3.679688 -1.085938 4.015625 -1.359375 C 4.109375 -1.429688 4.1875 -1.421875 4.25 -1.328125 C 4.3125 -1.242188 4.34375 -1.148438 4.34375 -1.046875 C 4.34375 -0.867188 4.316406 -0.75 4.265625 -0.6875 C 4.222656 -0.625 4.140625 -0.546875 4.015625 -0.453125 C 3.898438 -0.367188 3.757812 -0.289062 3.59375 -0.21875 C 3.195312 -0.0390625 2.8125 0.046875 2.4375 0.046875 C 2.0625 0.046875 1.757812 0 1.53125 -0.09375 C 1.300781 -0.1875 1.109375 -0.316406 0.953125 -0.484375 C 0.617188 -0.847656 0.453125 -1.335938 0.453125 -1.953125 Z M 0.453125 -1.953125 "/></g></g></g><g fill="#eefeec" fill-opacity="1"><g transform="translate(72.232427, 202.772908)"><g><path d="M 5 -5.640625 C 5 -6.253906 4.585938 -6.5625 3.765625 -6.5625 C 3.253906 -6.5625 2.734375 -6.410156 2.203125 -6.109375 C 2.054688 -6.015625 1.9375 -5.925781 1.84375 -5.84375 C 1.757812 -5.769531 1.675781 -5.734375 1.59375 -5.734375 C 1.519531 -5.734375 1.445312 -5.753906 1.375 -5.796875 C 1.3125 -5.835938 1.25 -5.882812 1.1875 -5.9375 C 0.988281 -6.164062 1.015625 -6.382812 1.265625 -6.59375 C 1.628906 -6.914062 2.242188 -7.125 3.109375 -7.21875 C 3.285156 -7.238281 3.503906 -7.25 3.765625 -7.25 C 4.035156 -7.25 4.316406 -7.195312 4.609375 -7.09375 C 4.910156 -7 5.164062 -6.875 5.375 -6.71875 C 5.769531 -6.382812 5.96875 -5.957031 5.96875 -5.4375 C 5.96875 -4.820312 5.691406 -4.265625 5.140625 -3.765625 C 4.648438 -3.328125 4.078125 -3.007812 3.421875 -2.8125 C 3.597656 -2.664062 3.765625 -2.453125 3.921875 -2.171875 L 4.296875 -1.515625 C 4.617188 -0.898438 4.910156 -0.566406 5.171875 -0.515625 C 5.265625 -0.503906 5.359375 -0.507812 5.453125 -0.53125 C 5.546875 -0.550781 5.609375 -0.5625 5.640625 -0.5625 C 5.671875 -0.5625 5.691406 -0.535156 5.703125 -0.484375 C 5.710938 -0.429688 5.695312 -0.367188 5.65625 -0.296875 C 5.625 -0.222656 5.566406 -0.15625 5.484375 -0.09375 C 5.285156 0.0625 5.066406 0.128906 4.828125 0.109375 C 4.597656 0.0976562 4.410156 0.0546875 4.265625 -0.015625 C 4.128906 -0.0976562 4.003906 -0.203125 3.890625 -0.328125 C 3.773438 -0.453125 3.671875 -0.585938 3.578125 -0.734375 C 3.492188 -0.878906 3.414062 -1.03125 3.34375 -1.1875 L 3.125 -1.640625 C 3.0625 -1.796875 3 -1.925781 2.9375 -2.03125 C 2.882812 -2.132812 2.835938 -2.226562 2.796875 -2.3125 C 2.753906 -2.40625 2.710938 -2.488281 2.671875 -2.5625 C 2.566406 -2.726562 2.429688 -2.832031 2.265625 -2.875 C 1.609375 -1.195312 0.941406 -0.238281 0.265625 0 C 0.210938 0.0195312 0.15625 0.03125 0.09375 0.03125 C 0.0390625 0.03125 -0.00390625 0.0195312 -0.046875 0 C -0.0976562 -0.0195312 -0.140625 -0.046875 -0.171875 -0.078125 C -0.234375 -0.128906 -0.265625 -0.191406 -0.265625 -0.265625 C -0.265625 -0.335938 -0.242188 -0.390625 -0.203125 -0.421875 C 0.265625 -0.765625 0.785156 -1.753906 1.359375 -3.390625 L 1.625 -4.1875 C 1.945312 -5.09375 2.21875 -5.648438 2.4375 -5.859375 C 2.519531 -5.921875 2.601562 -5.953125 2.6875 -5.953125 C 2.769531 -5.953125 2.84375 -5.9375 2.90625 -5.90625 C 2.96875 -5.882812 3.019531 -5.851562 3.0625 -5.8125 C 3.164062 -5.71875 3.21875 -5.617188 3.21875 -5.515625 C 3.21875 -5.421875 3.195312 -5.335938 3.15625 -5.265625 C 3.113281 -5.191406 3.066406 -5.085938 3.015625 -4.953125 C 2.867188 -4.546875 2.753906 -4.222656 2.671875 -3.984375 L 2.421875 -3.3125 C 3.085938 -3.40625 3.675781 -3.664062 4.1875 -4.09375 C 4.726562 -4.550781 5 -5.066406 5 -5.640625 Z M 5 -5.640625 "/></g></g></g><g fill="#eefeec" fill-opacity="1"><g transform="translate(79.563634, 202.772908)"><g><path d="M 4.859375 -6.21875 C 4.859375 -6.476562 4.703125 -6.609375 4.390625 -6.609375 C 3.796875 -6.609375 3.257812 -6.332031 2.78125 -5.78125 C 2.488281 -5.457031 2.285156 -5.109375 2.171875 -4.734375 C 2.117188 -4.546875 2.09375 -4.378906 2.09375 -4.234375 C 2.09375 -4.097656 2.109375 -3.988281 2.140625 -3.90625 C 2.171875 -3.832031 2.210938 -3.765625 2.265625 -3.703125 C 2.367188 -3.597656 2.492188 -3.554688 2.640625 -3.578125 C 2.785156 -3.640625 2.914062 -3.671875 3.03125 -3.671875 C 3.15625 -3.671875 3.25 -3.65625 3.3125 -3.625 C 3.382812 -3.59375 3.441406 -3.554688 3.484375 -3.515625 C 3.578125 -3.429688 3.625 -3.347656 3.625 -3.265625 C 3.625 -3.109375 3.570312 -3.023438 3.46875 -3.015625 C 3.300781 -3.003906 3.128906 -2.960938 2.953125 -2.890625 C 2.773438 -2.816406 2.597656 -2.71875 2.421875 -2.59375 C 2.242188 -2.476562 2.082031 -2.34375 1.9375 -2.1875 C 1.613281 -1.84375 1.453125 -1.5 1.453125 -1.15625 C 1.453125 -0.988281 1.492188 -0.863281 1.578125 -0.78125 C 1.703125 -0.632812 1.851562 -0.5625 2.03125 -0.5625 C 2.21875 -0.5625 2.394531 -0.597656 2.5625 -0.671875 C 2.738281 -0.742188 2.898438 -0.828125 3.046875 -0.921875 C 3.253906 -1.078125 3.457031 -1.273438 3.65625 -1.515625 C 3.75 -1.628906 3.832031 -1.6875 3.90625 -1.6875 C 3.988281 -1.6875 4.046875 -1.640625 4.078125 -1.546875 C 4.117188 -1.460938 4.140625 -1.367188 4.140625 -1.265625 C 4.140625 -1.066406 4.097656 -0.914062 4.015625 -0.8125 C 3.941406 -0.71875 3.847656 -0.617188 3.734375 -0.515625 C 3.617188 -0.421875 3.476562 -0.332031 3.3125 -0.25 C 2.925781 -0.0507812 2.507812 0.046875 2.0625 0.046875 C 1.320312 0.046875 0.8125 -0.195312 0.53125 -0.6875 C 0.425781 -0.875 0.375 -1.0625 0.375 -1.25 C 0.375 -1.445312 0.40625 -1.625 0.46875 -1.78125 C 0.53125 -1.945312 0.601562 -2.101562 0.6875 -2.25 C 0.78125 -2.394531 0.878906 -2.519531 0.984375 -2.625 C 1.097656 -2.738281 1.210938 -2.835938 1.328125 -2.921875 C 1.535156 -3.085938 1.710938 -3.1875 1.859375 -3.21875 C 1.503906 -3.351562 1.265625 -3.625 1.140625 -4.03125 C 1.109375 -4.15625 1.09375 -4.3125 1.09375 -4.5 C 1.09375 -4.6875 1.128906 -4.890625 1.203125 -5.109375 C 1.273438 -5.335938 1.375 -5.554688 1.5 -5.765625 C 1.632812 -5.972656 1.789062 -6.164062 1.96875 -6.34375 C 2.144531 -6.53125 2.34375 -6.6875 2.5625 -6.8125 C 3.03125 -7.101562 3.523438 -7.25 4.046875 -7.25 C 4.585938 -7.25 4.992188 -7.113281 5.265625 -6.84375 C 5.472656 -6.625 5.578125 -6.347656 5.578125 -6.015625 C 5.578125 -5.628906 5.414062 -5.238281 5.09375 -4.84375 C 4.90625 -4.601562 4.726562 -4.441406 4.5625 -4.359375 C 4.40625 -4.273438 4.28125 -4.226562 4.1875 -4.21875 C 4.101562 -4.207031 4.023438 -4.21875 3.953125 -4.25 C 3.878906 -4.28125 3.8125 -4.320312 3.75 -4.375 C 3.625 -4.488281 3.5625 -4.59375 3.5625 -4.6875 C 3.5625 -4.800781 3.601562 -4.890625 3.6875 -4.953125 L 4.109375 -5.25 C 4.609375 -5.613281 4.859375 -5.9375 4.859375 -6.21875 Z M 4.859375 -6.21875 "/></g></g></g><g fill="#eefeec" fill-opacity="1"><g transform="translate(85.813602, 202.772908)"><g><path d="M 3.484375 -1.0625 C 3.484375 -1.476562 3.601562 -2.117188 3.84375 -2.984375 C 3.09375 -2.960938 2.519531 -2.941406 2.125 -2.921875 C 2 -2.703125 1.890625 -2.492188 1.796875 -2.296875 L 1.5 -1.71875 C 1.113281 -0.96875 0.769531 -0.472656 0.46875 -0.234375 C 0.238281 -0.046875 -0.00390625 0.046875 -0.265625 0.046875 C -0.460938 0.046875 -0.613281 -0.0195312 -0.71875 -0.15625 C -0.757812 -0.207031 -0.78125 -0.253906 -0.78125 -0.296875 C -0.789062 -0.347656 -0.78125 -0.378906 -0.75 -0.390625 C -0.394531 -0.523438 -0.101562 -0.726562 0.125 -1 C 0.3125 -1.25 0.503906 -1.550781 0.703125 -1.90625 L 1.234375 -2.84375 L 0.9375 -2.8125 C 0.75 -2.769531 0.65625 -2.796875 0.65625 -2.890625 C 0.65625 -2.984375 0.710938 -3.070312 0.828125 -3.15625 C 1.023438 -3.300781 1.21875 -3.398438 1.40625 -3.453125 L 1.59375 -3.5 C 2.101562 -4.34375 2.492188 -4.929688 2.765625 -5.265625 C 3.035156 -5.597656 3.28125 -5.875 3.5 -6.09375 C 3.726562 -6.320312 3.960938 -6.519531 4.203125 -6.6875 C 4.742188 -7.0625 5.273438 -7.25 5.796875 -7.25 C 5.953125 -7.25 6.0625 -7.21875 6.125 -7.15625 C 6.207031 -7.050781 6.234375 -6.9375 6.203125 -6.8125 C 6.171875 -6.695312 6.113281 -6.535156 6.03125 -6.328125 C 5.539062 -4.960938 5.238281 -4.117188 5.125 -3.796875 C 5.175781 -3.804688 5.222656 -3.8125 5.265625 -3.8125 L 5.359375 -3.8125 C 5.710938 -3.8125 5.898438 -3.773438 5.921875 -3.703125 C 5.929688 -3.679688 5.9375 -3.640625 5.9375 -3.578125 C 5.9375 -3.523438 5.914062 -3.460938 5.875 -3.390625 C 5.84375 -3.316406 5.785156 -3.253906 5.703125 -3.203125 C 5.535156 -3.085938 5.257812 -3.019531 4.875 -3 C 4.664062 -2.269531 4.546875 -1.765625 4.515625 -1.484375 C 4.484375 -1.203125 4.488281 -1.015625 4.53125 -0.921875 C 4.582031 -0.828125 4.648438 -0.78125 4.734375 -0.78125 C 4.828125 -0.78125 4.898438 -0.785156 4.953125 -0.796875 C 5.015625 -0.816406 5.066406 -0.835938 5.109375 -0.859375 L 5.234375 -0.90625 C 5.265625 -0.925781 5.296875 -0.9375 5.328125 -0.9375 C 5.359375 -0.9375 5.382812 -0.914062 5.40625 -0.875 C 5.4375 -0.832031 5.453125 -0.773438 5.453125 -0.703125 C 5.453125 -0.640625 5.421875 -0.5625 5.359375 -0.46875 C 5.304688 -0.375 5.234375 -0.289062 5.140625 -0.21875 C 4.921875 -0.0390625 4.671875 0.046875 4.390625 0.046875 C 3.972656 0.046875 3.695312 -0.140625 3.5625 -0.515625 C 3.507812 -0.640625 3.484375 -0.753906 3.484375 -0.859375 Z M 2.546875 -3.65625 C 3.097656 -3.726562 3.613281 -3.769531 4.09375 -3.78125 C 4.175781 -4.050781 4.269531 -4.316406 4.375 -4.578125 L 4.65625 -5.328125 C 4.757812 -5.554688 4.859375 -5.78125 4.953125 -6 L 5.21875 -6.5625 C 4.570312 -6.394531 3.9375 -5.835938 3.3125 -4.890625 C 3.175781 -4.691406 3.046875 -4.488281 2.921875 -4.28125 Z M 2.546875 -3.65625 "/></g></g></g><g fill="#eefeec" fill-opacity="1"><g transform="translate(93.074905, 202.772908)"><g><path d="M 5.6875 -6.375 C 5.59375 -6.3125 5.484375 -6.257812 5.359375 -6.21875 C 5.242188 -6.1875 5.085938 -6.171875 4.890625 -6.171875 C 4.691406 -6.171875 4.429688 -6.1875 4.109375 -6.21875 C 4.035156 -6.019531 3.957031 -5.785156 3.875 -5.515625 L 3.34375 -3.6875 C 2.675781 -1.5 1.96875 -0.269531 1.21875 0 C 1.164062 0.0195312 1.097656 0.03125 1.015625 0.03125 C 0.941406 0.03125 0.878906 0.0195312 0.828125 0 C 0.773438 -0.0195312 0.726562 -0.046875 0.6875 -0.078125 C 0.625 -0.128906 0.59375 -0.179688 0.59375 -0.234375 C 0.59375 -0.296875 0.609375 -0.335938 0.640625 -0.359375 L 0.75 -0.421875 C 1.195312 -0.710938 1.609375 -1.492188 1.984375 -2.765625 L 2.328125 -3.890625 C 2.628906 -4.921875 2.910156 -5.726562 3.171875 -6.3125 C 2.921875 -6.332031 2.734375 -6.34375 2.609375 -6.34375 C 2.242188 -6.34375 1.976562 -6.289062 1.8125 -6.1875 C 1.65625 -6.082031 1.546875 -5.96875 1.484375 -5.84375 C 1.421875 -5.726562 1.382812 -5.648438 1.375 -5.609375 C 1.363281 -5.515625 1.332031 -5.457031 1.28125 -5.4375 C 1.238281 -5.414062 1.1875 -5.40625 1.125 -5.40625 C 1.0625 -5.40625 0.992188 -5.425781 0.921875 -5.46875 C 0.847656 -5.519531 0.785156 -5.582031 0.734375 -5.65625 C 0.640625 -5.8125 0.601562 -5.984375 0.625 -6.171875 C 0.644531 -6.359375 0.707031 -6.519531 0.8125 -6.65625 C 0.914062 -6.800781 1.039062 -6.914062 1.1875 -7 C 1.445312 -7.164062 1.722656 -7.25 2.015625 -7.25 C 2.316406 -7.25 2.597656 -7.234375 2.859375 -7.203125 C 3.117188 -7.171875 3.378906 -7.140625 3.640625 -7.109375 C 4.335938 -7.015625 4.78125 -6.96875 4.96875 -6.96875 C 5.15625 -6.96875 5.296875 -6.976562 5.390625 -7 C 5.484375 -7.019531 5.5625 -7.050781 5.625 -7.09375 C 5.6875 -7.132812 5.726562 -7.160156 5.75 -7.171875 C 5.78125 -7.191406 5.828125 -7.203125 5.890625 -7.203125 C 5.984375 -7.203125 6.019531 -7.128906 6 -6.984375 C 5.988281 -6.847656 5.957031 -6.726562 5.90625 -6.625 C 5.851562 -6.519531 5.78125 -6.4375 5.6875 -6.375 Z M 5.6875 -6.375 "/></g></g></g><g fill="#eefeec" fill-opacity="1"><g transform="translate(98.961356, 202.772908)"><g><path d="M -0.03125 -0.421875 C 0.5 -0.816406 1.039062 -1.835938 1.59375 -3.484375 C 1.90625 -4.429688 2.125 -5.289062 2.25 -6.0625 C 2.28125 -6.269531 2.296875 -6.429688 2.296875 -6.546875 C 2.171875 -6.546875 2.054688 -6.515625 1.953125 -6.453125 L 1.59375 -6.25 C 1.5 -6.195312 1.367188 -6.238281 1.203125 -6.375 C 1.046875 -6.507812 0.972656 -6.625 0.984375 -6.71875 C 1.003906 -6.8125 1.0625 -6.890625 1.15625 -6.953125 C 1.25 -7.015625 1.351562 -7.066406 1.46875 -7.109375 C 1.726562 -7.203125 1.941406 -7.25 2.109375 -7.25 C 2.285156 -7.25 2.4375 -7.234375 2.5625 -7.203125 C 2.695312 -7.179688 2.820312 -7.140625 2.9375 -7.078125 C 3.1875 -6.929688 3.3125 -6.722656 3.3125 -6.453125 C 3.320312 -5.992188 3.164062 -5.210938 2.84375 -4.109375 C 2.320312 -2.347656 1.71875 -1.113281 1.03125 -0.40625 C 0.832031 -0.207031 0.632812 -0.0703125 0.4375 0 C 0.375 0.0195312 0.3125 0.03125 0.25 0.03125 C 0.195312 0.03125 0.144531 0.0195312 0.09375 0 C 0.0507812 -0.0195312 0.015625 -0.046875 -0.015625 -0.078125 C -0.078125 -0.128906 -0.109375 -0.191406 -0.109375 -0.265625 C -0.109375 -0.335938 -0.0820312 -0.390625 -0.03125 -0.421875 Z M -0.03125 -0.421875 "/></g></g></g><g fill="#eefeec" fill-opacity="1"><g transform="translate(103.472963, 202.772908)"><g><path d="M 0.96875 -0.4375 C 0.90625 -0.570312 0.851562 -0.710938 0.8125 -0.859375 C 0.78125 -1.015625 0.765625 -1.175781 0.765625 -1.34375 C 0.765625 -1.507812 0.789062 -1.726562 0.84375 -2 C 0.90625 -2.28125 0.984375 -2.570312 1.078125 -2.875 C 1.179688 -3.175781 1.300781 -3.484375 1.4375 -3.796875 C 1.570312 -4.117188 1.710938 -4.429688 1.859375 -4.734375 C 2.160156 -5.359375 2.460938 -5.898438 2.765625 -6.359375 L 2.71875 -6.359375 C 2.34375 -6.359375 2 -6.273438 1.6875 -6.109375 C 1.613281 -6.046875 1.539062 -6.015625 1.46875 -6.015625 C 1.3125 -6.015625 1.164062 -6.085938 1.03125 -6.234375 C 0.707031 -6.578125 0.898438 -6.859375 1.609375 -7.078125 C 1.941406 -7.191406 2.207031 -7.25 2.40625 -7.25 C 2.613281 -7.25 2.78125 -7.21875 2.90625 -7.15625 C 3.03125 -7.09375 3.132812 -7.015625 3.21875 -6.921875 C 3.351562 -6.785156 3.445312 -6.648438 3.5 -6.515625 C 3.5625 -6.390625 3.59375 -6.273438 3.59375 -6.171875 C 3.59375 -6.066406 3.5625 -5.929688 3.5 -5.765625 C 3.445312 -5.597656 3.375 -5.414062 3.28125 -5.21875 L 2.953125 -4.609375 C 2.847656 -4.390625 2.738281 -4.160156 2.625 -3.921875 C 2.507812 -3.691406 2.394531 -3.457031 2.28125 -3.21875 C 2.175781 -2.976562 2.078125 -2.75 1.984375 -2.53125 C 1.796875 -2.03125 1.703125 -1.609375 1.703125 -1.265625 C 1.703125 -1.046875 1.722656 -0.867188 1.765625 -0.734375 C 1.898438 -0.953125 2.066406 -1.179688 2.265625 -1.421875 L 2.921875 -2.15625 C 3.679688 -2.96875 4.171875 -3.503906 4.390625 -3.765625 C 4.921875 -4.390625 5.328125 -4.976562 5.609375 -5.53125 C 5.734375 -5.757812 5.796875 -5.960938 5.796875 -6.140625 C 5.796875 -6.472656 5.703125 -6.722656 5.515625 -6.890625 C 5.453125 -6.953125 5.441406 -7.03125 5.484375 -7.125 C 5.535156 -7.21875 5.585938 -7.289062 5.640625 -7.34375 C 5.753906 -7.445312 5.890625 -7.5 6.046875 -7.5 C 6.203125 -7.5 6.332031 -7.46875 6.4375 -7.40625 C 6.539062 -7.34375 6.625 -7.265625 6.6875 -7.171875 C 6.820312 -6.984375 6.890625 -6.75 6.890625 -6.46875 C 6.890625 -6.1875 6.828125 -5.882812 6.703125 -5.5625 C 6.585938 -5.25 6.429688 -4.941406 6.234375 -4.640625 C 6.046875 -4.347656 5.828125 -4.0625 5.578125 -3.78125 C 5.328125 -3.5 5.070312 -3.226562 4.8125 -2.96875 L 3.40625 -1.640625 C 2.976562 -1.210938 2.695312 -0.921875 2.5625 -0.765625 C 2.289062 -0.460938 2.113281 -0.257812 2.03125 -0.15625 C 1.957031 -0.0625 1.890625 -0.0078125 1.828125 0 C 1.765625 0.0195312 1.675781 0.03125 1.5625 0.03125 C 1.457031 0.03125 1.347656 -0.015625 1.234375 -0.109375 C 1.128906 -0.203125 1.039062 -0.3125 0.96875 -0.4375 Z M 0.96875 -0.4375 "/></g></g></g><g fill="#eefeec" fill-opacity="1"><g transform="translate(110.463957, 202.772908)"><g><path d="M 4.859375 -6.21875 C 4.859375 -6.476562 4.703125 -6.609375 4.390625 -6.609375 C 3.796875 -6.609375 3.257812 -6.332031 2.78125 -5.78125 C 2.488281 -5.457031 2.285156 -5.109375 2.171875 -4.734375 C 2.117188 -4.546875 2.09375 -4.378906 2.09375 -4.234375 C 2.09375 -4.097656 2.109375 -3.988281 2.140625 -3.90625 C 2.171875 -3.832031 2.210938 -3.765625 2.265625 -3.703125 C 2.367188 -3.597656 2.492188 -3.554688 2.640625 -3.578125 C 2.785156 -3.640625 2.914062 -3.671875 3.03125 -3.671875 C 3.15625 -3.671875 3.25 -3.65625 3.3125 -3.625 C 3.382812 -3.59375 3.441406 -3.554688 3.484375 -3.515625 C 3.578125 -3.429688 3.625 -3.347656 3.625 -3.265625 C 3.625 -3.109375 3.570312 -3.023438 3.46875 -3.015625 C 3.300781 -3.003906 3.128906 -2.960938 2.953125 -2.890625 C 2.773438 -2.816406 2.597656 -2.71875 2.421875 -2.59375 C 2.242188 -2.476562 2.082031 -2.34375 1.9375 -2.1875 C 1.613281 -1.84375 1.453125 -1.5 1.453125 -1.15625 C 1.453125 -0.988281 1.492188 -0.863281 1.578125 -0.78125 C 1.703125 -0.632812 1.851562 -0.5625 2.03125 -0.5625 C 2.21875 -0.5625 2.394531 -0.597656 2.5625 -0.671875 C 2.738281 -0.742188 2.898438 -0.828125 3.046875 -0.921875 C 3.253906 -1.078125 3.457031 -1.273438 3.65625 -1.515625 C 3.75 -1.628906 3.832031 -1.6875 3.90625 -1.6875 C 3.988281 -1.6875 4.046875 -1.640625 4.078125 -1.546875 C 4.117188 -1.460938 4.140625 -1.367188 4.140625 -1.265625 C 4.140625 -1.066406 4.097656 -0.914062 4.015625 -0.8125 C 3.941406 -0.71875 3.847656 -0.617188 3.734375 -0.515625 C 3.617188 -0.421875 3.476562 -0.332031 3.3125 -0.25 C 2.925781 -0.0507812 2.507812 0.046875 2.0625 0.046875 C 1.320312 0.046875 0.8125 -0.195312 0.53125 -0.6875 C 0.425781 -0.875 0.375 -1.0625 0.375 -1.25 C 0.375 -1.445312 0.40625 -1.625 0.46875 -1.78125 C 0.53125 -1.945312 0.601562 -2.101562 0.6875 -2.25 C 0.78125 -2.394531 0.878906 -2.519531 0.984375 -2.625 C 1.097656 -2.738281 1.210938 -2.835938 1.328125 -2.921875 C 1.535156 -3.085938 1.710938 -3.1875 1.859375 -3.21875 C 1.503906 -3.351562 1.265625 -3.625 1.140625 -4.03125 C 1.109375 -4.15625 1.09375 -4.3125 1.09375 -4.5 C 1.09375 -4.6875 1.128906 -4.890625 1.203125 -5.109375 C 1.273438 -5.335938 1.375 -5.554688 1.5 -5.765625 C 1.632812 -5.972656 1.789062 -6.164062 1.96875 -6.34375 C 2.144531 -6.53125 2.34375 -6.6875 2.5625 -6.8125 C 3.03125 -7.101562 3.523438 -7.25 4.046875 -7.25 C 4.585938 -7.25 4.992188 -7.113281 5.265625 -6.84375 C 5.472656 -6.625 5.578125 -6.347656 5.578125 -6.015625 C 5.578125 -5.628906 5.414062 -5.238281 5.09375 -4.84375 C 4.90625 -4.601562 4.726562 -4.441406 4.5625 -4.359375 C 4.40625 -4.273438 4.28125 -4.226562 4.1875 -4.21875 C 4.101562 -4.207031 4.023438 -4.21875 3.953125 -4.25 C 3.878906 -4.28125 3.8125 -4.320312 3.75 -4.375 C 3.625 -4.488281 3.5625 -4.59375 3.5625 -4.6875 C 3.5625 -4.800781 3.601562 -4.890625 3.6875 -4.953125 L 4.109375 -5.25 C 4.609375 -5.613281 4.859375 -5.9375 4.859375 -6.21875 Z M 4.859375 -6.21875 "/></g></g></g><g fill="#eefeec" fill-opacity="1"><g transform="translate(116.713923, 202.772908)"><g/></g></g><g fill="#eefeec" fill-opacity="1"><g transform="translate(121.029784, 202.772908)"><g><path d="M 0.453125 -1.09375 C 0.472656 -1.300781 0.53125 -1.582031 0.625 -1.9375 C 0.71875 -2.289062 0.835938 -2.671875 0.984375 -3.078125 C 1.304688 -4.003906 1.691406 -4.828125 2.140625 -5.546875 C 2.203125 -5.648438 2.28125 -5.707031 2.375 -5.71875 C 2.507812 -5.738281 2.628906 -5.75 2.734375 -5.75 C 2.835938 -5.75 2.929688 -5.738281 3.015625 -5.71875 C 3.097656 -5.695312 3.164062 -5.664062 3.21875 -5.625 C 3.3125 -5.550781 3.328125 -5.46875 3.265625 -5.375 C 2.703125 -4.53125 2.207031 -3.5 1.78125 -2.28125 C 1.625 -1.8125 1.53125 -1.484375 1.5 -1.296875 C 1.46875 -1.117188 1.445312 -0.992188 1.4375 -0.921875 C 1.425781 -0.859375 1.421875 -0.800781 1.421875 -0.75 C 1.421875 -0.644531 1.484375 -0.59375 1.609375 -0.59375 C 1.742188 -0.59375 1.890625 -0.625 2.046875 -0.6875 C 2.210938 -0.75 2.382812 -0.832031 2.5625 -0.9375 C 2.75 -1.050781 2.941406 -1.1875 3.140625 -1.34375 C 3.347656 -1.507812 3.546875 -1.691406 3.734375 -1.890625 C 3.929688 -2.085938 4.113281 -2.300781 4.28125 -2.53125 C 4.457031 -2.757812 4.609375 -3 4.734375 -3.25 C 5.015625 -3.8125 5.15625 -4.363281 5.15625 -4.90625 C 5.15625 -5.65625 4.851562 -6.148438 4.25 -6.390625 C 4.039062 -6.472656 3.820312 -6.515625 3.59375 -6.515625 C 3.363281 -6.515625 3.164062 -6.5 3 -6.46875 C 2.84375 -6.445312 2.691406 -6.410156 2.546875 -6.359375 C 2.253906 -6.242188 2.007812 -6.097656 1.8125 -5.921875 C 1.757812 -5.898438 1.691406 -5.890625 1.609375 -5.890625 C 1.535156 -5.890625 1.457031 -5.910156 1.375 -5.953125 C 1.289062 -5.992188 1.210938 -6.046875 1.140625 -6.109375 C 0.984375 -6.265625 0.921875 -6.410156 0.953125 -6.546875 C 0.992188 -6.742188 1.296875 -6.914062 1.859375 -7.0625 C 2.328125 -7.1875 2.800781 -7.25 3.28125 -7.25 C 3.757812 -7.25 4.1875 -7.179688 4.5625 -7.046875 C 4.945312 -6.921875 5.257812 -6.75 5.5 -6.53125 C 5.945312 -6.113281 6.171875 -5.554688 6.171875 -4.859375 C 6.171875 -3.929688 5.851562 -3.035156 5.21875 -2.171875 C 4.632812 -1.367188 3.9375 -0.765625 3.125 -0.359375 C 2.59375 -0.0859375 2.109375 0.046875 1.671875 0.046875 C 1.328125 0.046875 1.03125 -0.0507812 0.78125 -0.25 C 0.507812 -0.46875 0.398438 -0.75 0.453125 -1.09375 Z M 0.453125 -1.09375 "/></g></g></g><g fill="#eefeec" fill-opacity="1"><g transform="translate(128.430899, 202.772908)"><g><path d="M 4.859375 -6.21875 C 4.859375 -6.476562 4.703125 -6.609375 4.390625 -6.609375 C 3.796875 -6.609375 3.257812 -6.332031 2.78125 -5.78125 C 2.488281 -5.457031 2.285156 -5.109375 2.171875 -4.734375 C 2.117188 -4.546875 2.09375 -4.378906 2.09375 -4.234375 C 2.09375 -4.097656 2.109375 -3.988281 2.140625 -3.90625 C 2.171875 -3.832031 2.210938 -3.765625 2.265625 -3.703125 C 2.367188 -3.597656 2.492188 -3.554688 2.640625 -3.578125 C 2.785156 -3.640625 2.914062 -3.671875 3.03125 -3.671875 C 3.15625 -3.671875 3.25 -3.65625 3.3125 -3.625 C 3.382812 -3.59375 3.441406 -3.554688 3.484375 -3.515625 C 3.578125 -3.429688 3.625 -3.347656 3.625 -3.265625 C 3.625 -3.109375 3.570312 -3.023438 3.46875 -3.015625 C 3.300781 -3.003906 3.128906 -2.960938 2.953125 -2.890625 C 2.773438 -2.816406 2.597656 -2.71875 2.421875 -2.59375 C 2.242188 -2.476562 2.082031 -2.34375 1.9375 -2.1875 C 1.613281 -1.84375 1.453125 -1.5 1.453125 -1.15625 C 1.453125 -0.988281 1.492188 -0.863281 1.578125 -0.78125 C 1.703125 -0.632812 1.851562 -0.5625 2.03125 -0.5625 C 2.21875 -0.5625 2.394531 -0.597656 2.5625 -0.671875 C 2.738281 -0.742188 2.898438 -0.828125 3.046875 -0.921875 C 3.253906 -1.078125 3.457031 -1.273438 3.65625 -1.515625 C 3.75 -1.628906 3.832031 -1.6875 3.90625 -1.6875 C 3.988281 -1.6875 4.046875 -1.640625 4.078125 -1.546875 C 4.117188 -1.460938 4.140625 -1.367188 4.140625 -1.265625 C 4.140625 -1.066406 4.097656 -0.914062 4.015625 -0.8125 C 3.941406 -0.71875 3.847656 -0.617188 3.734375 -0.515625 C 3.617188 -0.421875 3.476562 -0.332031 3.3125 -0.25 C 2.925781 -0.0507812 2.507812 0.046875 2.0625 0.046875 C 1.320312 0.046875 0.8125 -0.195312 0.53125 -0.6875 C 0.425781 -0.875 0.375 -1.0625 0.375 -1.25 C 0.375 -1.445312 0.40625 -1.625 0.46875 -1.78125 C 0.53125 -1.945312 0.601562 -2.101562 0.6875 -2.25 C 0.78125 -2.394531 0.878906 -2.519531 0.984375 -2.625 C 1.097656 -2.738281 1.210938 -2.835938 1.328125 -2.921875 C 1.535156 -3.085938 1.710938 -3.1875 1.859375 -3.21875 C 1.503906 -3.351562 1.265625 -3.625 1.140625 -4.03125 C 1.109375 -4.15625 1.09375 -4.3125 1.09375 -4.5 C 1.09375 -4.6875 1.128906 -4.890625 1.203125 -5.109375 C 1.273438 -5.335938 1.375 -5.554688 1.5 -5.765625 C 1.632812 -5.972656 1.789062 -6.164062 1.96875 -6.34375 C 2.144531 -6.53125 2.34375 -6.6875 2.5625 -6.8125 C 3.03125 -7.101562 3.523438 -7.25 4.046875 -7.25 C 4.585938 -7.25 4.992188 -7.113281 5.265625 -6.84375 C 5.472656 -6.625 5.578125 -6.347656 5.578125 -6.015625 C 5.578125 -5.628906 5.414062 -5.238281 5.09375 -4.84375 C 4.90625 -4.601562 4.726562 -4.441406 4.5625 -4.359375 C 4.40625 -4.273438 4.28125 -4.226562 4.1875 -4.21875 C 4.101562 -4.207031 4.023438 -4.21875 3.953125 -4.25 C 3.878906 -4.28125 3.8125 -4.320312 3.75 -4.375 C 3.625 -4.488281 3.5625 -4.59375 3.5625 -4.6875 C 3.5625 -4.800781 3.601562 -4.890625 3.6875 -4.953125 L 4.109375 -5.25 C 4.609375 -5.613281 4.859375 -5.9375 4.859375 -6.21875 Z M 4.859375 -6.21875 "/></g></g></g><g fill="#eefeec" fill-opacity="1"><g transform="translate(134.680865, 202.772908)"><g><path d="M 1.171875 -1.8125 L 1.125 -1.453125 C 1.125 -1.078125 1.253906 -0.820312 1.515625 -0.6875 C 1.597656 -0.632812 1.695312 -0.609375 1.8125 -0.609375 C 1.9375 -0.609375 2.046875 -0.628906 2.140625 -0.671875 C 2.242188 -0.710938 2.328125 -0.769531 2.390625 -0.84375 C 2.515625 -0.976562 2.578125 -1.140625 2.578125 -1.328125 C 2.578125 -1.515625 2.539062 -1.679688 2.46875 -1.828125 C 2.394531 -1.972656 2.300781 -2.125 2.1875 -2.28125 L 1.8125 -2.734375 C 1.507812 -3.085938 1.304688 -3.410156 1.203125 -3.703125 C 1.109375 -4.003906 1.0625 -4.28125 1.0625 -4.53125 C 1.0625 -4.78125 1.085938 -5.015625 1.140625 -5.234375 C 1.203125 -5.460938 1.285156 -5.675781 1.390625 -5.875 C 1.503906 -6.070312 1.632812 -6.253906 1.78125 -6.421875 C 1.9375 -6.597656 2.109375 -6.742188 2.296875 -6.859375 C 2.691406 -7.117188 3.078125 -7.25 3.453125 -7.25 C 3.835938 -7.25 4.132812 -7.195312 4.34375 -7.09375 C 4.5625 -6.988281 4.738281 -6.851562 4.875 -6.6875 C 5.113281 -6.382812 5.234375 -6.019531 5.234375 -5.59375 C 5.234375 -5.1875 5.117188 -4.804688 4.890625 -4.453125 C 4.679688 -4.128906 4.453125 -3.925781 4.203125 -3.84375 C 4.140625 -3.8125 4.054688 -3.796875 3.953125 -3.796875 C 3.859375 -3.796875 3.78125 -3.8125 3.71875 -3.84375 C 3.65625 -3.875 3.597656 -3.914062 3.546875 -3.96875 C 3.429688 -4.070312 3.375 -4.1875 3.375 -4.3125 C 3.375 -4.40625 3.398438 -4.460938 3.453125 -4.484375 C 3.691406 -4.617188 3.898438 -4.804688 4.078125 -5.046875 C 4.265625 -5.304688 4.363281 -5.566406 4.375 -5.828125 C 4.382812 -6.097656 4.320312 -6.296875 4.1875 -6.421875 C 4.050781 -6.546875 3.867188 -6.609375 3.640625 -6.609375 C 3.421875 -6.609375 3.21875 -6.554688 3.03125 -6.453125 C 2.851562 -6.347656 2.703125 -6.210938 2.578125 -6.046875 C 2.296875 -5.679688 2.15625 -5.25 2.15625 -4.75 C 2.15625 -4.414062 2.269531 -4.0625 2.5 -3.6875 C 2.59375 -3.53125 2.695312 -3.375 2.8125 -3.21875 C 2.925781 -3.070312 3.03125 -2.914062 3.125 -2.75 C 3.351562 -2.375 3.46875 -2.035156 3.46875 -1.734375 C 3.46875 -1.441406 3.414062 -1.191406 3.3125 -0.984375 C 3.207031 -0.773438 3.066406 -0.597656 2.890625 -0.453125 C 2.503906 -0.117188 2.066406 0.046875 1.578125 0.046875 C 1.117188 0.046875 0.765625 -0.0859375 0.515625 -0.359375 C 0.316406 -0.578125 0.21875 -0.816406 0.21875 -1.078125 C 0.21875 -1.359375 0.296875 -1.597656 0.453125 -1.796875 C 0.578125 -1.941406 0.695312 -2.023438 0.8125 -2.046875 C 1.050781 -2.117188 1.171875 -2.039062 1.171875 -1.8125 Z M 1.171875 -1.8125 "/></g></g></g><g fill="#eefeec" fill-opacity="1"><g transform="translate(140.590618, 202.772908)"><g><path d="M -0.03125 -0.421875 C 0.5 -0.816406 1.039062 -1.835938 1.59375 -3.484375 C 1.90625 -4.429688 2.125 -5.289062 2.25 -6.0625 C 2.28125 -6.269531 2.296875 -6.429688 2.296875 -6.546875 C 2.171875 -6.546875 2.054688 -6.515625 1.953125 -6.453125 L 1.59375 -6.25 C 1.5 -6.195312 1.367188 -6.238281 1.203125 -6.375 C 1.046875 -6.507812 0.972656 -6.625 0.984375 -6.71875 C 1.003906 -6.8125 1.0625 -6.890625 1.15625 -6.953125 C 1.25 -7.015625 1.351562 -7.066406 1.46875 -7.109375 C 1.726562 -7.203125 1.941406 -7.25 2.109375 -7.25 C 2.285156 -7.25 2.4375 -7.234375 2.5625 -7.203125 C 2.695312 -7.179688 2.820312 -7.140625 2.9375 -7.078125 C 3.1875 -6.929688 3.3125 -6.722656 3.3125 -6.453125 C 3.320312 -5.992188 3.164062 -5.210938 2.84375 -4.109375 C 2.320312 -2.347656 1.71875 -1.113281 1.03125 -0.40625 C 0.832031 -0.207031 0.632812 -0.0703125 0.4375 0 C 0.375 0.0195312 0.3125 0.03125 0.25 0.03125 C 0.195312 0.03125 0.144531 0.0195312 0.09375 0 C 0.0507812 -0.0195312 0.015625 -0.046875 -0.015625 -0.078125 C -0.078125 -0.128906 -0.109375 -0.191406 -0.109375 -0.265625 C -0.109375 -0.335938 -0.0820312 -0.390625 -0.03125 -0.421875 Z M -0.03125 -0.421875 "/></g></g></g><g fill="#eefeec" fill-opacity="1"><g transform="translate(145.10222, 202.772908)"><g><path d="M 0.484375 -1.953125 L 0.484375 -2.09375 C 0.515625 -3.019531 0.75 -3.898438 1.1875 -4.734375 C 1.582031 -5.472656 2.09375 -6.082031 2.71875 -6.5625 C 3.320312 -7.019531 3.90625 -7.25 4.46875 -7.25 C 4.90625 -7.25 5.25 -7.097656 5.5 -6.796875 C 5.71875 -6.535156 5.828125 -6.21875 5.828125 -5.84375 C 5.828125 -5.382812 5.660156 -4.9375 5.328125 -4.5 C 5.140625 -4.238281 4.9375 -4.050781 4.71875 -3.9375 C 4.613281 -3.882812 4.515625 -3.859375 4.421875 -3.859375 C 4.335938 -3.859375 4.253906 -3.875 4.171875 -3.90625 C 4.097656 -3.945312 4.035156 -4 3.984375 -4.0625 C 3.867188 -4.175781 3.8125 -4.28125 3.8125 -4.375 C 3.8125 -4.476562 3.835938 -4.546875 3.890625 -4.578125 C 4.398438 -4.941406 4.75 -5.320312 4.9375 -5.71875 C 5 -5.863281 5.03125 -6.007812 5.03125 -6.15625 C 5.03125 -6.457031 4.890625 -6.609375 4.609375 -6.609375 C 4.148438 -6.609375 3.679688 -6.351562 3.203125 -5.84375 C 2.742188 -5.363281 2.359375 -4.765625 2.046875 -4.046875 C 1.734375 -3.304688 1.566406 -2.628906 1.546875 -2.015625 C 1.515625 -1.359375 1.671875 -0.921875 2.015625 -0.703125 C 2.128906 -0.617188 2.273438 -0.578125 2.453125 -0.578125 C 2.628906 -0.578125 2.796875 -0.617188 2.953125 -0.703125 C 3.109375 -0.785156 3.242188 -0.894531 3.359375 -1.03125 C 3.597656 -1.300781 3.722656 -1.585938 3.734375 -1.890625 C 3.734375 -2.117188 3.648438 -2.28125 3.484375 -2.375 C 3.421875 -2.40625 3.347656 -2.425781 3.265625 -2.4375 C 3.179688 -2.457031 3.113281 -2.476562 3.0625 -2.5 C 3.019531 -2.53125 3.007812 -2.582031 3.03125 -2.65625 C 3.050781 -2.738281 3.097656 -2.816406 3.171875 -2.890625 C 3.347656 -3.085938 3.546875 -3.1875 3.765625 -3.1875 C 3.835938 -3.1875 3.941406 -3.171875 4.078125 -3.140625 C 4.347656 -3.078125 4.53125 -3.046875 4.625 -3.046875 C 4.71875 -3.046875 4.789062 -3.046875 4.84375 -3.046875 C 4.894531 -3.054688 4.953125 -3.070312 5.015625 -3.09375 C 5.140625 -3.113281 5.257812 -3.144531 5.375 -3.1875 C 5.550781 -3.25 5.640625 -3.207031 5.640625 -3.0625 C 5.640625 -2.914062 5.609375 -2.78125 5.546875 -2.65625 C 5.492188 -2.53125 5.414062 -2.421875 5.3125 -2.328125 C 5.09375 -2.128906 4.820312 -2.035156 4.5 -2.046875 C 4.53125 -1.835938 4.457031 -1.578125 4.28125 -1.265625 C 3.96875 -0.679688 3.515625 -0.28125 2.921875 -0.0625 C 2.710938 0.0078125 2.476562 0.046875 2.21875 0.046875 C 1.96875 0.046875 1.734375 0 1.515625 -0.09375 C 1.296875 -0.1875 1.109375 -0.316406 0.953125 -0.484375 C 0.640625 -0.835938 0.484375 -1.328125 0.484375 -1.953125 Z M 0.484375 -1.953125 "/></g></g></g><g fill="#eefeec" fill-opacity="1"><g transform="translate(152.195742, 202.772908)"><g><path d="M 5 -0.484375 L 5 -0.328125 C 5 -0.222656 4.96875 -0.140625 4.90625 -0.078125 C 4.84375 -0.015625 4.757812 0.015625 4.65625 0.015625 C 4.5625 0.015625 4.453125 -0.0234375 4.328125 -0.109375 C 4.203125 -0.203125 4.066406 -0.347656 3.921875 -0.546875 C 3.785156 -0.742188 3.648438 -1.015625 3.515625 -1.359375 C 3.378906 -1.703125 3.265625 -2.066406 3.171875 -2.453125 C 2.992188 -3.222656 2.90625 -4.03125 2.90625 -4.875 C 2.90625 -5.289062 2.929688 -5.6875 2.984375 -6.0625 L 2.921875 -5.984375 C 2.335938 -5.160156 1.820312 -3.921875 1.375 -2.265625 C 1.164062 -1.492188 1.019531 -0.769531 0.9375 -0.09375 C 0.925781 0 0.851562 0.046875 0.71875 0.046875 C 0.488281 0.046875 0.328125 -0.0625 0.234375 -0.28125 C 0.203125 -0.363281 0.1875 -0.476562 0.1875 -0.625 C 0.1875 -0.769531 0.210938 -0.984375 0.265625 -1.265625 C 0.316406 -1.546875 0.390625 -1.859375 0.484375 -2.203125 C 0.585938 -2.546875 0.707031 -2.90625 0.84375 -3.28125 C 0.976562 -3.65625 1.125 -4.023438 1.28125 -4.390625 C 1.445312 -4.765625 1.625 -5.117188 1.8125 -5.453125 C 2 -5.796875 2.191406 -6.09375 2.390625 -6.34375 C 2.835938 -6.914062 3.253906 -7.207031 3.640625 -7.21875 C 3.847656 -7.238281 3.976562 -7.207031 4.03125 -7.125 C 4.09375 -7.039062 4.101562 -6.894531 4.0625 -6.6875 C 3.96875 -6.320312 3.921875 -5.957031 3.921875 -5.59375 C 3.921875 -5.238281 3.925781 -4.9375 3.9375 -4.6875 C 3.957031 -4.445312 3.984375 -4.203125 4.015625 -3.953125 C 4.046875 -3.703125 4.082031 -3.457031 4.125 -3.21875 C 4.175781 -2.976562 4.226562 -2.75 4.28125 -2.53125 C 4.40625 -2.039062 4.523438 -1.65625 4.640625 -1.375 C 4.742188 -1.632812 4.851562 -1.894531 4.96875 -2.15625 L 5.671875 -3.6875 C 6.054688 -4.550781 6.25 -5.242188 6.25 -5.765625 C 6.25 -6.253906 6.144531 -6.550781 5.9375 -6.65625 C 5.894531 -6.675781 5.867188 -6.710938 5.859375 -6.765625 C 5.847656 -6.828125 5.859375 -6.882812 5.890625 -6.9375 C 5.921875 -7 5.960938 -7.054688 6.015625 -7.109375 C 6.140625 -7.210938 6.273438 -7.265625 6.421875 -7.265625 C 6.578125 -7.265625 6.71875 -7.226562 6.84375 -7.15625 C 6.96875 -7.09375 7.070312 -7.007812 7.15625 -6.90625 C 7.3125 -6.707031 7.390625 -6.46875 7.390625 -6.1875 C 7.390625 -5.914062 7.34375 -5.632812 7.25 -5.34375 C 7.15625 -5.050781 7.035156 -4.742188 6.890625 -4.421875 C 6.742188 -4.097656 6.578125 -3.773438 6.390625 -3.453125 L 5.859375 -2.46875 C 5.429688 -1.695312 5.15625 -1.109375 5.03125 -0.703125 C 5.007812 -0.640625 5 -0.566406 5 -0.484375 Z M 5 -0.484375 "/></g></g></g><g fill="#eefeec" fill-opacity="1"><g transform="translate(160.337872, 202.772908)"><g><path d="M 4.859375 -6.21875 C 4.859375 -6.476562 4.703125 -6.609375 4.390625 -6.609375 C 3.796875 -6.609375 3.257812 -6.332031 2.78125 -5.78125 C 2.488281 -5.457031 2.285156 -5.109375 2.171875 -4.734375 C 2.117188 -4.546875 2.09375 -4.378906 2.09375 -4.234375 C 2.09375 -4.097656 2.109375 -3.988281 2.140625 -3.90625 C 2.171875 -3.832031 2.210938 -3.765625 2.265625 -3.703125 C 2.367188 -3.597656 2.492188 -3.554688 2.640625 -3.578125 C 2.785156 -3.640625 2.914062 -3.671875 3.03125 -3.671875 C 3.15625 -3.671875 3.25 -3.65625 3.3125 -3.625 C 3.382812 -3.59375 3.441406 -3.554688 3.484375 -3.515625 C 3.578125 -3.429688 3.625 -3.347656 3.625 -3.265625 C 3.625 -3.109375 3.570312 -3.023438 3.46875 -3.015625 C 3.300781 -3.003906 3.128906 -2.960938 2.953125 -2.890625 C 2.773438 -2.816406 2.597656 -2.71875 2.421875 -2.59375 C 2.242188 -2.476562 2.082031 -2.34375 1.9375 -2.1875 C 1.613281 -1.84375 1.453125 -1.5 1.453125 -1.15625 C 1.453125 -0.988281 1.492188 -0.863281 1.578125 -0.78125 C 1.703125 -0.632812 1.851562 -0.5625 2.03125 -0.5625 C 2.21875 -0.5625 2.394531 -0.597656 2.5625 -0.671875 C 2.738281 -0.742188 2.898438 -0.828125 3.046875 -0.921875 C 3.253906 -1.078125 3.457031 -1.273438 3.65625 -1.515625 C 3.75 -1.628906 3.832031 -1.6875 3.90625 -1.6875 C 3.988281 -1.6875 4.046875 -1.640625 4.078125 -1.546875 C 4.117188 -1.460938 4.140625 -1.367188 4.140625 -1.265625 C 4.140625 -1.066406 4.097656 -0.914062 4.015625 -0.8125 C 3.941406 -0.71875 3.847656 -0.617188 3.734375 -0.515625 C 3.617188 -0.421875 3.476562 -0.332031 3.3125 -0.25 C 2.925781 -0.0507812 2.507812 0.046875 2.0625 0.046875 C 1.320312 0.046875 0.8125 -0.195312 0.53125 -0.6875 C 0.425781 -0.875 0.375 -1.0625 0.375 -1.25 C 0.375 -1.445312 0.40625 -1.625 0.46875 -1.78125 C 0.53125 -1.945312 0.601562 -2.101562 0.6875 -2.25 C 0.78125 -2.394531 0.878906 -2.519531 0.984375 -2.625 C 1.097656 -2.738281 1.210938 -2.835938 1.328125 -2.921875 C 1.535156 -3.085938 1.710938 -3.1875 1.859375 -3.21875 C 1.503906 -3.351562 1.265625 -3.625 1.140625 -4.03125 C 1.109375 -4.15625 1.09375 -4.3125 1.09375 -4.5 C 1.09375 -4.6875 1.128906 -4.890625 1.203125 -5.109375 C 1.273438 -5.335938 1.375 -5.554688 1.5 -5.765625 C 1.632812 -5.972656 1.789062 -6.164062 1.96875 -6.34375 C 2.144531 -6.53125 2.34375 -6.6875 2.5625 -6.8125 C 3.03125 -7.101562 3.523438 -7.25 4.046875 -7.25 C 4.585938 -7.25 4.992188 -7.113281 5.265625 -6.84375 C 5.472656 -6.625 5.578125 -6.347656 5.578125 -6.015625 C 5.578125 -5.628906 5.414062 -5.238281 5.09375 -4.84375 C 4.90625 -4.601562 4.726562 -4.441406 4.5625 -4.359375 C 4.40625 -4.273438 4.28125 -4.226562 4.1875 -4.21875 C 4.101562 -4.207031 4.023438 -4.21875 3.953125 -4.25 C 3.878906 -4.28125 3.8125 -4.320312 3.75 -4.375 C 3.625 -4.488281 3.5625 -4.59375 3.5625 -4.6875 C 3.5625 -4.800781 3.601562 -4.890625 3.6875 -4.953125 L 4.109375 -5.25 C 4.609375 -5.613281 4.859375 -5.9375 4.859375 -6.21875 Z M 4.859375 -6.21875 "/></g></g></g><g fill="#eefeec" fill-opacity="1"><g transform="translate(166.587838, 202.772908)"><g><path d="M 5 -5.640625 C 5 -6.253906 4.585938 -6.5625 3.765625 -6.5625 C 3.253906 -6.5625 2.734375 -6.410156 2.203125 -6.109375 C 2.054688 -6.015625 1.9375 -5.925781 1.84375 -5.84375 C 1.757812 -5.769531 1.675781 -5.734375 1.59375 -5.734375 C 1.519531 -5.734375 1.445312 -5.753906 1.375 -5.796875 C 1.3125 -5.835938 1.25 -5.882812 1.1875 -5.9375 C 0.988281 -6.164062 1.015625 -6.382812 1.265625 -6.59375 C 1.628906 -6.914062 2.242188 -7.125 3.109375 -7.21875 C 3.285156 -7.238281 3.503906 -7.25 3.765625 -7.25 C 4.035156 -7.25 4.316406 -7.195312 4.609375 -7.09375 C 4.910156 -7 5.164062 -6.875 5.375 -6.71875 C 5.769531 -6.382812 5.96875 -5.957031 5.96875 -5.4375 C 5.96875 -4.820312 5.691406 -4.265625 5.140625 -3.765625 C 4.648438 -3.328125 4.078125 -3.007812 3.421875 -2.8125 C 3.597656 -2.664062 3.765625 -2.453125 3.921875 -2.171875 L 4.296875 -1.515625 C 4.617188 -0.898438 4.910156 -0.566406 5.171875 -0.515625 C 5.265625 -0.503906 5.359375 -0.507812 5.453125 -0.53125 C 5.546875 -0.550781 5.609375 -0.5625 5.640625 -0.5625 C 5.671875 -0.5625 5.691406 -0.535156 5.703125 -0.484375 C 5.710938 -0.429688 5.695312 -0.367188 5.65625 -0.296875 C 5.625 -0.222656 5.566406 -0.15625 5.484375 -0.09375 C 5.285156 0.0625 5.066406 0.128906 4.828125 0.109375 C 4.597656 0.0976562 4.410156 0.0546875 4.265625 -0.015625 C 4.128906 -0.0976562 4.003906 -0.203125 3.890625 -0.328125 C 3.773438 -0.453125 3.671875 -0.585938 3.578125 -0.734375 C 3.492188 -0.878906 3.414062 -1.03125 3.34375 -1.1875 L 3.125 -1.640625 C 3.0625 -1.796875 3 -1.925781 2.9375 -2.03125 C 2.882812 -2.132812 2.835938 -2.226562 2.796875 -2.3125 C 2.753906 -2.40625 2.710938 -2.488281 2.671875 -2.5625 C 2.566406 -2.726562 2.429688 -2.832031 2.265625 -2.875 C 1.609375 -1.195312 0.941406 -0.238281 0.265625 0 C 0.210938 0.0195312 0.15625 0.03125 0.09375 0.03125 C 0.0390625 0.03125 -0.00390625 0.0195312 -0.046875 0 C -0.0976562 -0.0195312 -0.140625 -0.046875 -0.171875 -0.078125 C -0.234375 -0.128906 -0.265625 -0.191406 -0.265625 -0.265625 C -0.265625 -0.335938 -0.242188 -0.390625 -0.203125 -0.421875 C 0.265625 -0.765625 0.785156 -1.753906 1.359375 -3.390625 L 1.625 -4.1875 C 1.945312 -5.09375 2.21875 -5.648438 2.4375 -5.859375 C 2.519531 -5.921875 2.601562 -5.953125 2.6875 -5.953125 C 2.769531 -5.953125 2.84375 -5.9375 2.90625 -5.90625 C 2.96875 -5.882812 3.019531 -5.851562 3.0625 -5.8125 C 3.164062 -5.71875 3.21875 -5.617188 3.21875 -5.515625 C 3.21875 -5.421875 3.195312 -5.335938 3.15625 -5.265625 C 3.113281 -5.191406 3.066406 -5.085938 3.015625 -4.953125 C 2.867188 -4.546875 2.753906 -4.222656 2.671875 -3.984375 L 2.421875 -3.3125 C 3.085938 -3.40625 3.675781 -3.664062 4.1875 -4.09375 C 4.726562 -4.550781 5 -5.066406 5 -5.640625 Z M 5 -5.640625 "/></g></g></g><g fill="#eefeec" fill-opacity="1"><g transform="translate(173.918982, 202.772908)"><g/></g></g><g fill="#eefeec" fill-opacity="1"><g transform="translate(178.234846, 202.772908)"><g/></g></g><g fill="#eefeec" fill-opacity="1"><g transform="translate(182.542787, 202.772908)"><g><path d="M 1.0625 -2.515625 C 0.882812 -2.515625 0.796875 -2.582031 0.796875 -2.71875 C 0.796875 -2.84375 0.84375 -2.960938 0.9375 -3.078125 C 1.09375 -3.265625 1.21875 -3.359375 1.3125 -3.359375 L 3.46875 -3.359375 C 3.601562 -3.359375 3.671875 -3.296875 3.671875 -3.171875 C 3.671875 -3.035156 3.625 -2.914062 3.53125 -2.8125 C 3.375 -2.613281 3.238281 -2.515625 3.125 -2.515625 Z M 1.0625 -2.515625 "/></g></g></g><g fill="#eefeec" fill-opacity="1"><g transform="translate(188.242817, 202.772908)"><g><path d="M 1.0625 -2.515625 C 0.882812 -2.515625 0.796875 -2.582031 0.796875 -2.71875 C 0.796875 -2.84375 0.84375 -2.960938 0.9375 -3.078125 C 1.09375 -3.265625 1.21875 -3.359375 1.3125 -3.359375 L 3.46875 -3.359375 C 3.601562 -3.359375 3.671875 -3.296875 3.671875 -3.171875 C 3.671875 -3.035156 3.625 -2.914062 3.53125 -2.8125 C 3.375 -2.613281 3.238281 -2.515625 3.125 -2.515625 Z M 1.0625 -2.515625 "/></g></g></g><g fill="#eefeec" fill-opacity="1"><g transform="translate(193.942847, 202.772908)"><g><path d="M 1.0625 -2.515625 C 0.882812 -2.515625 0.796875 -2.582031 0.796875 -2.71875 C 0.796875 -2.84375 0.84375 -2.960938 0.9375 -3.078125 C 1.09375 -3.265625 1.21875 -3.359375 1.3125 -3.359375 L 3.46875 -3.359375 C 3.601562 -3.359375 3.671875 -3.296875 3.671875 -3.171875 C 3.671875 -3.035156 3.625 -2.914062 3.53125 -2.8125 C 3.375 -2.613281 3.238281 -2.515625 3.125 -2.515625 Z M 1.0625 -2.515625 "/></g></g></g></svg>